<svg width="82" height="78" viewBox="0 0 82 78" fill="none" xmlns="http://www.w3.org/2000/svg">
<path d="M26.0474 3.2666H79.0695C80.1963 3.2666 81.0655 4.20433 81.0011 5.33607L76.6872 75.2777C76.6228 76.4095 75.6248 77.3472 74.4981 77.3472H21.476C20.3492 77.3472 19.48 76.4095 19.5444 75.2777L23.8904 5.33607C23.9548 4.20433 24.9206 3.2666 26.0474 3.2666Z" fill="#007CFF"/>
<path opacity="0.4" d="M26.0474 3.2666H79.0695C80.1963 3.2666 81.0655 4.20433 81.0011 5.33607L76.6872 75.2777C76.6228 76.4095 75.6248 77.3472 74.4981 77.3472H21.476C20.3492 77.3472 19.48 76.4095 19.5444 75.2777L23.8904 5.33607C23.9548 4.20433 24.9206 3.2666 26.0474 3.2666Z" fill="black"/>
<path d="M24.856 3.2666H77.8781C79.0048 3.2666 79.8741 4.20433 79.8097 5.33607L75.4958 75.2777C75.4314 76.4095 74.4334 77.3472 73.3067 77.3472H20.2523C19.1256 77.3472 18.2564 76.4095 18.3207 75.2777L22.6668 5.33607C22.7312 4.20433 23.697 3.2666 24.856 3.2666Z" fill="#007CFF"/>
<path opacity="0.4" d="M21.2178 73.5631L72.7912 74.2098L76.9763 6.43457H25.3707L21.2178 73.5631Z" fill="black"/>
<path d="M19.7051 72.8838C37.1216 72.8838 54.5381 72.8838 71.9546 72.8838C74.8198 46.401 75.7212 32.1088 76.1075 5.62598C58.691 5.62598 41.2745 5.62598 23.858 5.62598C23.4717 32.1088 22.5703 46.401 19.7051 72.8838Z" fill="white"/>
<path opacity="0.3" d="M69.8621 24.0573H60.8802C60.687 24.0573 60.526 23.9926 60.3973 23.831C60.2685 23.7016 60.2041 23.5076 60.2041 23.3459L60.7514 14.3243C60.7836 13.9686 61.0733 13.71 61.4274 13.71H70.4093C70.6025 13.71 70.7635 13.7746 70.8922 13.9363C71.021 14.0657 71.0854 14.2597 71.0854 14.4213L70.5381 23.4106C70.5059 23.7663 70.2162 24.0573 69.8621 24.0573ZM61.5884 22.6992H69.2504L69.7333 15.0034H62.0713L61.5884 22.6992Z" fill="#007CFF"/>
<path opacity="0.3" d="M69.0251 37.7995H60.0432C59.8501 37.7995 59.6891 37.7348 59.5603 37.5732C59.4316 37.4438 59.3672 37.2498 59.3672 37.0881L59.9145 28.0665C59.9467 27.7108 60.2364 27.4521 60.5905 27.4521H69.5724C69.7656 27.4521 69.9265 27.5168 70.0553 27.6785C70.1841 27.8078 70.2485 28.0019 70.2485 28.1635L69.7012 37.1851C69.669 37.5408 69.3793 37.7995 69.0251 37.7995ZM60.7193 36.4738H68.3813L68.8642 28.7779H61.2022L60.7193 36.4738Z" fill="#007CFF"/>
<path opacity="0.3" d="M68.156 51.5749H59.1741C58.9809 51.5749 58.82 51.5102 58.6912 51.3485C58.5624 51.2192 58.498 51.0252 58.498 50.8635L59.0453 41.8419C59.0775 41.4862 59.3673 41.2275 59.7214 41.2275H68.7033C68.8964 41.2275 69.0574 41.2922 69.1862 41.4539C69.3149 41.5832 69.3793 41.7772 69.3793 41.9389L68.8321 50.9605C68.7999 51.2839 68.5101 51.5749 68.156 51.5749ZM59.8823 50.2491H67.5443L68.0272 42.5533H60.3652L59.8823 50.2491Z" fill="#007CFF"/>
<path opacity="0.3" d="M67.3201 65.3493H58.3382C58.145 65.3493 57.984 65.2846 57.8553 65.123C57.7265 64.9936 57.6621 64.7996 57.6621 64.6379L58.2094 55.6163C58.2416 55.2606 58.5313 55.002 58.8854 55.002H67.8673C68.0605 55.002 68.2215 55.0666 68.3502 55.2283C68.479 55.3576 68.5434 55.5517 68.5434 55.7133L67.9961 64.7349C67.9639 65.0583 67.6742 65.3493 67.3201 65.3493ZM59.0142 63.9912H66.6762L67.1591 56.2954H59.4971L59.0142 63.9912Z" fill="#007CFF"/>
<path opacity="0.3" d="M32.6469 17.6873H53.0252C53.6368 17.6873 54.1841 17.1699 54.2163 16.5556C54.2485 15.9412 53.7656 15.4238 53.1539 15.4238H32.7757C32.164 15.4238 31.6167 15.9412 31.5845 16.5556C31.5523 17.1699 32.0352 17.6873 32.6469 17.6873Z" fill="#007CFF"/>
<path opacity="0.3" d="M36.2525 22.3113H52.7676C53.3792 22.3113 53.9265 21.794 53.9587 21.1796C53.9909 20.5652 53.508 20.0479 52.8963 20.0479H36.3812C35.7696 20.0479 35.2223 20.5652 35.1901 21.1796C35.1579 21.794 35.6086 22.3113 36.2525 22.3113Z" fill="#007CFF"/>
<path opacity="0.3" d="M31.6487 33.8223H52.027C52.6387 33.8223 53.1216 34.3396 53.0894 34.954C53.0572 35.5684 52.5099 36.0858 51.8982 36.0858H31.52C30.9083 36.0858 30.4254 35.5684 30.4576 34.954C30.4898 34.3073 31.0371 33.8223 31.6487 33.8223Z" fill="#007CFF"/>
<path opacity="0.3" d="M35.802 29.1982H52.3171C52.9288 29.1982 53.4117 29.7156 53.3795 30.33C53.3473 30.9444 52.8 31.4617 52.1884 31.4617H35.6733C35.0616 31.4617 34.5787 30.9444 34.6109 30.33C34.6753 29.6833 35.1904 29.1982 35.802 29.1982Z" fill="#007CFF"/>
<path opacity="0.3" d="M30.9412 45.2049H51.3195C51.9312 45.2049 52.4784 44.6875 52.5106 44.0731C52.5428 43.4588 52.0599 42.9414 51.4483 42.9414H31.1022C30.4905 42.9414 29.9432 43.4588 29.911 44.0731C29.8467 44.6875 30.3296 45.2049 30.9412 45.2049Z" fill="#007CFF"/>
<path opacity="0.3" d="M42.8521 49.8289H51.0613C51.673 49.8289 52.2203 49.3115 52.2525 48.6972C52.2847 48.0828 51.8018 47.5654 51.1901 47.5654H42.9809C42.3692 47.5654 41.8219 48.0828 41.7897 48.6972C41.7575 49.3115 42.2082 49.8289 42.8521 49.8289Z" fill="#007CFF"/>
<path opacity="0.3" d="M34.5463 49.8289H38.8602C39.4719 49.8289 40.0192 49.3115 40.0514 48.6972C40.0835 48.0828 39.6006 47.5654 38.989 47.5654H34.6751C34.0634 47.5654 33.5161 48.0828 33.4839 48.6972C33.4517 49.3115 33.9346 49.8289 34.5463 49.8289Z" fill="#007CFF"/>
<path opacity="0.3" d="M30.1039 58.9793H50.4822C51.0939 58.9793 51.6412 58.4619 51.6733 57.8476C51.7055 57.2332 51.2226 56.7158 50.611 56.7158H30.2327C29.621 56.7158 29.0738 57.2332 29.0416 57.8476C29.0094 58.4619 29.4923 58.9793 30.1039 58.9793Z" fill="#007CFF"/>
<path opacity="0.3" d="M33.6776 63.6033H50.1926C50.8043 63.6033 51.3516 63.086 51.3838 62.4716C51.416 61.8572 50.9331 61.3398 50.3214 61.3398H33.8385C33.2268 61.3398 32.6796 61.8572 32.6474 62.4716C32.583 63.086 33.0659 63.6033 33.6776 63.6033Z" fill="#007CFF"/>
<path d="M64.9045 21.5674C64.7758 21.5674 64.647 21.5351 64.5182 21.4381L61.0736 19.0776C60.7838 18.8836 60.6872 18.4632 60.9126 18.1399C61.1058 17.8488 61.5243 17.7518 61.8462 17.9782L64.808 20.0153C65.9025 18.6896 68.9609 15.165 71.5363 14.0009C71.8583 13.8392 72.2768 14.0009 72.4056 14.3243C72.5665 14.6476 72.4056 15.068 72.0836 15.1973C69.2828 16.4584 65.5162 21.2441 65.4518 21.3087C65.3231 21.4704 65.1299 21.5674 64.9045 21.5674Z" fill="#007CFF"/>
<path d="M63.2953 35.0839C63.1344 35.0839 62.9734 35.0192 62.8446 34.8899L59.8185 31.9797C59.5609 31.721 59.5609 31.3006 59.7863 31.042C60.0438 30.7833 60.4623 30.7833 60.7199 31.0096L63.2953 33.4995C64.5509 32.3677 68.1243 29.3282 70.8285 28.5845C71.1827 28.4875 71.5368 28.6815 71.6334 29.0372C71.7299 29.3928 71.5368 29.7485 71.1827 29.8455C68.2531 30.6539 63.8104 34.8252 63.746 34.8899C63.6173 35.0192 63.4563 35.0839 63.2953 35.0839Z" fill="#007CFF"/>
<path opacity="0.4" d="M57.6609 7.21066H58.6267C59.7213 7.21066 60.5905 6.33761 60.6227 5.2382V3.42741C60.6227 3.33041 60.5261 3.2334 60.4295 3.2334H57.6931C57.5643 3.2334 57.4677 3.3304 57.4677 3.45975L57.4355 6.98432C57.4677 7.14599 57.5643 7.21066 57.6609 7.21066Z" fill="black"/>
<path d="M42.8522 0H59.2708C60.3009 0 61.0092 0.840723 60.8804 1.87546L60.3975 5.56171C60.2687 6.59644 59.3029 7.43716 58.305 7.43716H41.8543C40.8241 7.43716 40.1158 6.59644 40.2446 5.56171L40.7275 1.87546C40.8885 0.840723 41.8221 0 42.8522 0Z" fill="#007CFF"/>
<path opacity="0.6" d="M42.8522 0H59.2708C60.3009 0 61.0092 0.840723 60.8804 1.87546L60.3975 5.56171C60.2687 6.59644 59.3029 7.43716 58.305 7.43716H41.8543C40.8241 7.43716 40.1158 6.59644 40.2446 5.56171L40.7275 1.87546C40.8885 0.840723 41.8221 0 42.8522 0Z" fill="white"/>
<path opacity="0.5" d="M58.8522 1.77866H51.4477C51.158 1.77866 50.9648 1.55231 50.9648 1.29363C50.9648 1.03494 51.1902 0.808594 51.4477 0.808594H58.8522C59.1419 0.808594 59.3351 1.03494 59.3351 1.29363C59.3351 1.55231 59.1419 1.77866 58.8522 1.77866Z" fill="white"/>
<path opacity="0.5" d="M49.0016 1.77866H48.229C47.9393 1.77866 47.7461 1.55231 47.7461 1.29363C47.7461 1.03494 47.9714 0.808594 48.229 0.808594H49.0016C49.2914 0.808594 49.4845 1.03494 49.4845 1.29363C49.4845 1.55231 49.2592 1.77866 49.0016 1.77866Z" fill="white"/>
<path d="M25.2099 62.634L28.2039 61.4376L15.4554 27.4854L11.0449 29.2638L25.2099 62.634Z" fill="#007CFF"/>
<path d="M2.57803 6.4993L5.12129 3.39509L4.6062 2.06934L1.54785 3.91246L2.57803 6.4993Z" fill="#1A2E35"/>
<path d="M2.0625 5.88503L4.95988 2.32812L14.9076 26.1917L10.4971 27.9702L2.0625 5.88503Z" fill="#007CFF"/>
<path d="M11.2015 29.1911L15.2637 27.5508L14.7353 26.2307L10.6732 27.8711L11.2015 29.1911Z" fill="#1A2E35"/>
<path d="M27.9459 65.868C28.0103 66.062 28.2035 66.1913 28.3322 66.1266C28.461 66.062 28.5254 65.868 28.4288 65.6739C28.3644 65.4799 28.1713 65.3506 28.0425 65.4153C27.9137 65.4476 27.8493 65.6739 27.9459 65.868Z" fill="#007CFF"/>
<path d="M27.7854 65.9968L28.6546 65.6411L28.2039 61.4375L25.21 62.6339L27.7854 65.9968Z" fill="#1A2E35"/>
<path d="M6.85962 22.6349C6.82742 22.6673 6.76304 22.6996 6.69865 22.6996C6.4733 22.7319 6.28014 22.5703 6.24795 22.3439C5.60408 17.6553 2.15942 9.21569 1.19362 7.30789C0.903882 6.75819 0.936075 6.07915 1.2902 5.52944L1.93406 4.55938C2.06284 4.36536 2.32038 4.33303 2.48135 4.46237C2.67451 4.62405 2.73889 4.8504 2.61012 5.04441L1.96626 6.01447C1.7731 6.30549 1.7409 6.66119 1.90187 6.98454C2.89986 8.98934 6.37672 17.4289 7.05277 22.2792C7.05277 22.4086 6.98839 22.5703 6.85962 22.6349Z" fill="#1A2E35"/>
</svg>
