<svg width="35" height="35" viewBox="0 0 35 35" fill="none" xmlns="http://www.w3.org/2000/svg">
<path fill-rule="evenodd" clip-rule="evenodd" d="M17.5 5.16024C10.685 5.16024 5.1603 10.6849 5.1603 17.5C5.1603 24.315 10.685 29.8397 17.5 29.8397C24.3151 29.8397 29.8398 24.315 29.8398 17.5C29.8398 10.6849 24.3151 5.16024 17.5 5.16024ZM17.5 2.91665C9.44589 2.91665 2.91671 9.44583 2.91671 17.5C2.91671 25.5541 9.44589 32.0833 17.5 32.0833C25.5542 32.0833 32.0834 25.5541 32.0834 17.5C32.0834 9.44583 25.5542 2.91665 17.5 2.91665Z" fill="#9C9CA3"/>
<path d="M16.8067 24.7917V20.1331H26.25V14.8669H16.8067V10.2083L8.75 17.5L16.8067 24.7917Z" fill="#9C9CA3"/>
</svg>
