<svg width="84" height="20" xmlns="http://www.w3.org/2000/svg">

 <g>
  <title>Layer 1</title>
  <path id="svg_1" fill="#004ea2" d="m9.12,6.44l0,2.06l3.73,0l0,-2.06l-3.73,0zm-1.12,9.28l1,1.8c0.94,-0.79 1.92,-1.68 2.78,-2.49l-0.86,-1.72c-1.11,0.96 -2.17,1.86 -2.92,2.41zm0.65,-5.81a13.23,13.23 0 0 1 1.32,3l1.58,-0.91a12.44,12.44 0 0 0 -1.4,-2.89l-1.5,0.8zm5.06,-0.05a12.5,12.5 0 0 1 1.28,3l1.65,-0.9a14,14 0 0 0 -1.38,-2.91l-1.55,0.81zm-0.48,5.57l1,1.82c0.92,-0.78 1.86,-1.62 2.7,-2.41l-0.86,-1.72c-1.07,0.88 -2.14,1.78 -2.85,2.31l0.01,0zm-1.5,-9l0,11c0,0.25 -0.09,0.32 -0.32,0.32s-1,0 -1.67,0a7.5,7.5 0 0 1 0.58,2.12a5.94,5.94 0 0 0 2.7,-0.4c0.65,-0.36 0.8,-1 0.8,-2l0,-11.03l-2.09,-0.01zm2.53,0l0,2.07l3.74,0l0,-2.06l-3.74,-0.01zm2.57,0l0,11c0,0.23 -0.08,0.31 -0.33,0.31s-1,0 -1.76,0a9.6,9.6 0 0 1 0.63,2.21a6.14,6.14 0 0 0 2.8,-0.4c0.65,-0.38 0.84,-1 0.84,-2.06l0,-11l-2.18,-0.06zm-13.55,-6.24l0,6.11l2.43,0l0,-6.11l-2.43,0zm0,11.56l0,8.12l2.43,0l0,-8.12l-2.43,0zm-0.46,-1.57l3.23,0l0,1.11l-3.23,0l0,-1.11zm0,-2.81l3.23,0l0,1.09l-3.23,0l0,-1.09zm-2.15,-1.85l0,7.64l7.64,0l0,-7.64l-7.64,0zm-0.52,-3.4l0,2.2l8.57,0l0,-2.2l-8.57,0zm-0.15,12.17l0,2.25l8.68,0l0,-2.25l-8.68,0zm14.79,-13.56l-1.79,1.07a15.33,15.33 0 0 0 6,5.4a10.36,10.36 0 0 1 0.92,-2.39a11,11 0 0 1 -5.13,-4.08zm-1.46,-0.73a13.84,13.84 0 0 1 -5.61,5.48a15.08,15.08 0 0 1 1.34,2a18.46,18.46 0 0 0 6.4,-6.8l-2.13,-0.68z" class="cls-1"/>
  <path id="svg_2" fill="#004ea2" d="m31.3,4.58l0,2.42l9.7,0l0,-2.42l-9.7,0zm3.47,-4.37l0,19.71l2.51,0l0,-19.71l-2.51,0zm0,5.52a20.35,20.35 0 0 1 -5,9a10.87,10.87 0 0 1 1.36,2.27c2.39,-2.37 4.36,-6.69 5.42,-10.68l-1.78,-0.59zm2.72,0l-1.67,0.46c0.84,3.78 2.28,7.91 4,10.28a8.67,8.67 0 0 1 1.89,-1.93a23.47,23.47 0 0 1 -4.26,-8.81l0.04,0zm-15.37,-1.15l0,2.42l8.53,0l0,-2.42l-8.53,0zm3.34,-4.37l0,19.71l2.45,0l0,-19.71l-2.45,0zm-0.14,5.94a20.11,20.11 0 0 1 -3.77,7.78a15.63,15.63 0 0 1 1.26,2.44c1.8,-2.16 3.32,-6.19 4.1,-9.65l-1.59,-0.57zm2.55,1.13l-1.32,1.26a44.82,44.82 0 0 1 3,4.53l1.57,-2.18c-0.49,-0.56 -2.62,-3.04 -3.25,-3.61z" class="cls-1"/>
  <path id="svg_3" fill="#004ea2" d="m49.11,10.26a18.1,18.1 0 0 1 -1.76,5.32c0.32,0.19 0.7,0.42 1.19,0.69c1.46,0.83 3.47,1 5.89,1a71.37,71.37 0 0 0 8.6,-0.57a10.28,10.28 0 0 0 -0.75,2.66c-1.73,0.13 -5.48,0.26 -8,0.26c-2.77,0 -4.57,-0.24 -6.12,-1.08c-0.89,-0.47 -1.63,-1.1 -2.05,-1.1s-1.3,1.37 -1.85,2.52l-1.67,-2.44a8.93,8.93 0 0 1 2,-1.78a11.92,11.92 0 0 0 1.78,-3.81l-3,0c0.63,-1.29 1.25,-2.93 1.82,-4.64l-2.12,0l0,-2.24l5.32,0c-0.51,1.5 -1.12,3.2 -1.69,4.66l0.57,0l0.38,-0.07l1.46,0.62zm-3.6,-5.78c-0.36,-1 -1.1,-2.52 -1.57,-3.67l2.18,-0.81c0.51,1.14 1.23,2.58 1.63,3.49l-2.24,0.99zm8.75,-0.43l-5.26,0l0,-2.05l5.23,0l0,-1.84l2.45,0l0,1.84l5.53,0l0,2.05l-5.5,0l0,1.15l4.83,0l0,5.69l-4,0a31.72,31.72 0 0 1 4.62,3.24l-1.55,1.72a23.88,23.88 0 0 0 -3.94,-3l0,3.71l-2.41,0l0,-3.87a13,13 0 0 1 -4.15,3.48a10,10 0 0 0 -1.59,-1.91a11.9,11.9 0 0 0 4.64,-3.37l-3.54,0l0,-5.69l4.64,0l0,-1.15zm-2.26,4.95l2.31,0l0,-1.88l-2.31,0l0,1.88zm4.76,-1.87l0,1.87l2.38,0l0,-1.88l-2.38,0.01z" class="cls-1"/>
  <path id="svg_4" fill="#004ea2" d="m68.21,9.75a13.82,13.82 0 0 0 -3.3,-2l1.38,-1.85a12.62,12.62 0 0 1 3.39,1.85l-1.47,2zm1.79,3.09c-0.7,2.27 -1.63,4.7 -2.5,6.78l-2.27,-1.29a63.64,63.64 0 0 0 2.77,-6.8l2,1.31zm-1,-8.6a13.37,13.37 0 0 0 -3.29,-2.14l1.42,-1.86a14.52,14.52 0 0 1 3.35,2l-1.48,2zm4.66,11.27a16.54,16.54 0 0 1 -2.86,4.41a16.77,16.77 0 0 0 -2,-1.3a11.78,11.78 0 0 0 2.54,-3.74l2.32,0.63zm3.51,-0.8l-6.39,0l0,-13.81l6.39,0l0,13.81zm-2.17,-11.63l-2.11,0l0,1.78l2.11,0l0,-1.78zm0,3.79l-2.11,0l0,1.8l2.11,0l0,-1.8zm0,3.83l-2.11,0l0,1.82l2.11,0l0,-1.82zm1.27,4a21.11,21.11 0 0 1 2.19,3.3l-2,1.18a22.26,22.26 0 0 0 -2.14,-3.37l1.95,-1.11zm4.17,-0.26l-2.21,0l0,-12.23l2.18,0l0.03,12.23zm3.56,-14.35l0,16.91c0,1.3 -0.23,1.95 -1,2.33a7.65,7.65 0 0 1 -3.5,0.49a10.08,10.08 0 0 0 -0.71,-2.41c1.08,0 2.09,0 2.43,0s0.47,-0.13 0.47,-0.45l0,-16.87l2.31,0z" class="cls-1"/>
 </g>
</svg>